<svg width="240" height="24" viewBox="0 0 240 24" fill="none" xmlns="http://www.w3.org/2000/svg">
<path opacity="0.2" d="M12 2.25C10.0109 2.25 8.10322 3.04018 6.6967 4.4467C5.29018 5.85322 4.5 7.76088 4.5 9.75C4.5 16.5 12 21.75 12 21.75C12 21.75 19.5 16.5 19.5 9.75C19.5 7.76088 18.7098 5.85322 17.3033 4.4467C15.8968 3.04018 13.9891 2.25 12 2.25ZM12 12.75C11.4067 12.75 10.8266 12.5741 10.3333 12.2444C9.83994 11.9148 9.45542 11.4462 9.22836 10.8981C9.0013 10.3499 8.94189 9.74667 9.05764 9.16473C9.1734 8.58279 9.45912 8.04824 9.87868 7.62868C10.2982 7.20912 10.8328 6.9234 11.4147 6.80764C11.9967 6.69189 12.5999 6.7513 13.1481 6.97836C13.6962 7.20542 14.1648 7.58994 14.4944 8.08329C14.8241 8.57664 15 9.15666 15 9.75C15 10.5456 14.6839 11.3087 14.1213 11.8713C13.5587 12.4339 12.7956 12.75 12 12.75Z" fill="#EF5F4C"/>
<path d="M12 6C11.2583 6 10.5333 6.21993 9.91661 6.63199C9.29993 7.04404 8.81928 7.62971 8.53545 8.31494C8.25162 9.00016 8.17736 9.75416 8.32205 10.4816C8.46675 11.209 8.8239 11.8772 9.34835 12.4017C9.8728 12.9261 10.541 13.2833 11.2684 13.4279C11.9958 13.5726 12.7498 13.4984 13.4351 13.2145C14.1203 12.9307 14.706 12.4501 15.118 11.8334C15.5301 11.2167 15.75 10.4917 15.75 9.75C15.75 8.75544 15.3549 7.80161 14.6517 7.09835C13.9484 6.39509 12.9946 6 12 6ZM12 12C11.555 12 11.12 11.868 10.75 11.6208C10.38 11.3736 10.0916 11.0222 9.92127 10.611C9.75097 10.1999 9.70642 9.7475 9.79323 9.31105C9.88005 8.87459 10.0943 8.47368 10.409 8.15901C10.7237 7.84434 11.1246 7.63005 11.561 7.54323C11.9975 7.45642 12.4499 7.50097 12.861 7.67127C13.2722 7.84157 13.6236 8.12996 13.8708 8.49997C14.118 8.86998 14.25 9.30499 14.25 9.75C14.25 10.3467 14.0129 10.919 13.591 11.341C13.169 11.7629 12.5967 12 12 12ZM12 1.5C9.81273 1.50248 7.71575 2.37247 6.16911 3.91911C4.62247 5.46575 3.75248 7.56273 3.75 9.75C3.75 12.6938 5.11031 15.8138 7.6875 18.7734C8.84552 20.1108 10.1489 21.3151 11.5734 22.3641C11.6995 22.4524 11.8498 22.4998 12.0037 22.4998C12.1577 22.4998 12.308 22.4524 12.4341 22.3641C13.856 21.3147 15.1568 20.1104 16.3125 18.7734C18.8859 15.8138 20.25 12.6938 20.25 9.75C20.2475 7.56273 19.3775 5.46575 17.8309 3.91911C16.2843 2.37247 14.1873 1.50248 12 1.5ZM12 20.8125C10.4503 19.5938 5.25 15.1172 5.25 9.75C5.25 7.95979 5.96116 6.2429 7.22703 4.97703C8.4929 3.71116 10.2098 3 12 3C13.7902 3 15.5071 3.71116 16.773 4.97703C18.0388 6.2429 18.75 7.95979 18.75 9.75C18.75 15.1153 13.5497 19.5938 12 20.8125Z" fill="#EF5F4C"/>
<path opacity="0.2" d="M91.5938 7.59375L88.5 10.5L91.5 18.75L89.25 21L84.75 14.25L82.5 16.5V18.75L80.25 21L78.75 17.25L75 15.75L77.25 13.5H79.5L81.75 11.25L75 6.75L77.25 4.5L85.5 7.5L88.4062 4.40625C88.8289 3.98356 89.4022 3.74609 90 3.74609C90.5978 3.74609 91.1711 3.98356 91.5938 4.40625C92.0164 4.82894 92.2539 5.40222 92.2539 6C92.2539 6.59777 92.0164 7.17106 91.5938 7.59375Z" fill="#EF5F4C"/>
<path d="M89.3747 10.7072L92.1066 8.13568L92.1225 8.12068C92.6852 7.55801 93.0013 6.79486 93.0013 5.99912C93.0013 5.20338 92.6852 4.44023 92.1225 3.87756C91.5598 3.31489 90.7967 2.99878 90.0009 2.99878C89.2052 2.99878 88.4421 3.31489 87.8794 3.87756L87.8644 3.8935L85.2928 6.62537L77.5116 3.79412C77.3775 3.74534 77.2322 3.73584 77.0929 3.76673C76.9536 3.79761 76.8259 3.86761 76.725 3.9685L74.475 6.2185C74.3966 6.29696 74.3366 6.39184 74.2993 6.4963C74.2619 6.60076 74.2483 6.7122 74.2592 6.82258C74.2701 6.93297 74.3054 7.03955 74.3625 7.13465C74.4196 7.22975 74.4971 7.31101 74.5894 7.37256L80.5791 11.3654L79.1897 12.7501H77.25C77.0514 12.7502 76.8609 12.829 76.7203 12.9694L74.4703 15.2194C74.3826 15.307 74.3179 15.4149 74.282 15.5335C74.2462 15.6522 74.2403 15.7779 74.2649 15.8993C74.2895 16.0208 74.3439 16.1343 74.4231 16.2296C74.5023 16.325 74.6039 16.3992 74.7188 16.4457L78.1706 17.8266L79.5488 21.2719L79.5544 21.2869C79.6021 21.4023 79.6778 21.504 79.7747 21.5827C79.8716 21.6615 79.9867 21.7147 80.1094 21.7377C80.2321 21.7607 80.3587 21.7527 80.4775 21.7144C80.5964 21.6762 80.7038 21.6088 80.79 21.5185L83.0278 19.2797C83.0978 19.2104 83.1535 19.1279 83.1916 19.037C83.2298 18.9461 83.2496 18.8486 83.25 18.7501V16.8104L84.6338 15.4266L88.6266 21.4163C88.6881 21.5086 88.7694 21.5861 88.8645 21.6432C88.9596 21.7003 89.0662 21.7355 89.1765 21.7465C89.2869 21.7574 89.3984 21.7437 89.5028 21.7064C89.6073 21.6691 89.7022 21.6091 89.7806 21.5307L92.0306 19.2807C92.1315 19.1798 92.2015 19.0521 92.2324 18.9128C92.2633 18.7735 92.2538 18.6282 92.205 18.4941L89.3747 10.7072ZM89.3681 19.8226L85.3753 13.8329C85.314 13.7401 85.2328 13.662 85.1376 13.6045C85.0425 13.5469 84.9357 13.5113 84.825 13.5001C84.8003 13.4987 84.7756 13.4987 84.7509 13.5001C84.6524 13.5 84.5549 13.5193 84.4638 13.557C84.3728 13.5946 84.29 13.6498 84.2203 13.7194L81.9703 15.9694C81.9005 16.0391 81.8451 16.1218 81.8073 16.2128C81.7695 16.3039 81.7501 16.4015 81.75 16.5001V18.4397L80.5247 19.6651L79.4466 16.9688C79.4088 16.8752 79.3526 16.7902 79.2813 16.7188C79.2099 16.6474 79.1249 16.5912 79.0313 16.5535L76.3369 15.4754L77.5613 14.2501H79.5C79.5985 14.2501 79.6961 14.2308 79.7871 14.1932C79.8782 14.1555 79.9609 14.1003 80.0306 14.0307L82.2806 11.7807C82.3592 11.7022 82.4194 11.6073 82.4568 11.5027C82.4942 11.3982 82.5079 11.2866 82.497 11.1761C82.4861 11.0656 82.4507 10.9589 82.3935 10.8637C82.3363 10.7685 82.2587 10.6872 82.1663 10.6257L76.1775 6.63193L77.4431 5.36725L85.245 8.20412C85.3825 8.25463 85.5317 8.26379 85.6743 8.23047C85.8169 8.19715 85.9467 8.12281 86.0475 8.01662L88.9481 4.93412C89.233 4.67322 89.6075 4.53227 89.9937 4.5406C90.3798 4.54894 90.7479 4.70594 91.0212 4.97889C91.2946 5.25184 91.452 5.61971 91.4609 6.00588C91.4697 6.39205 91.3293 6.76674 91.0688 7.05193L87.9872 9.95256C87.881 10.0534 87.8067 10.1831 87.7733 10.3257C87.74 10.4684 87.7492 10.6176 87.7997 10.7551L90.6366 18.5569L89.3681 19.8226Z" fill="#EF5F4C"/>
<path opacity="0.2" d="M165 5.25V16.6931L161.276 12.9694C161.136 12.8288 160.945 12.7499 160.746 12.7499C160.547 12.7499 160.357 12.8288 160.216 12.9694L157.81 15.375L153.156 10.7194C153.086 10.6496 153.003 10.5943 152.912 10.5566C152.821 10.5188 152.724 10.4994 152.625 10.4994C152.526 10.4994 152.429 10.5188 152.338 10.5566C152.247 10.5943 152.164 10.6496 152.094 10.7194L147 15.8147V5.25C147 5.05109 147.079 4.86032 147.22 4.71967C147.36 4.57902 147.551 4.5 147.75 4.5H164.25C164.449 4.5 164.64 4.57902 164.78 4.71967C164.921 4.86032 165 5.05109 165 5.25Z" fill="#EF5F4C"/>
<path d="M164.25 3.75H147.75C147.352 3.75 146.971 3.90804 146.689 4.18934C146.408 4.47064 146.25 4.85218 146.25 5.25V18.75C146.25 19.1478 146.408 19.5294 146.689 19.8107C146.971 20.092 147.352 20.25 147.75 20.25H164.25C164.648 20.25 165.029 20.092 165.311 19.8107C165.592 19.5294 165.75 19.1478 165.75 18.75V5.25C165.75 4.85218 165.592 4.47064 165.311 4.18934C165.029 3.90804 164.648 3.75 164.25 3.75ZM164.25 5.25V14.8828L161.806 12.4397C161.667 12.3004 161.501 12.1898 161.319 12.1144C161.137 12.039 160.942 12.0002 160.745 12.0002C160.548 12.0002 160.353 12.039 160.171 12.1144C159.989 12.1898 159.824 12.3004 159.684 12.4397L157.809 14.3147L153.684 10.1897C153.403 9.9086 153.022 9.7507 152.624 9.7507C152.226 9.7507 151.845 9.9086 151.564 10.1897L147.75 14.0034V5.25H164.25ZM147.75 16.125L152.625 11.25L160.125 18.75H147.75V16.125ZM164.25 18.75H162.247L158.872 15.375L160.747 13.5L164.25 17.0044V18.75ZM157.5 9.375C157.5 9.1525 157.566 8.93499 157.69 8.74998C157.813 8.56498 157.989 8.42078 158.194 8.33564C158.4 8.25049 158.626 8.22821 158.844 8.27162C159.063 8.31502 159.263 8.42217 159.42 8.5795C159.578 8.73684 159.685 8.93729 159.728 9.15552C159.772 9.37375 159.75 9.59995 159.664 9.80552C159.579 10.0111 159.435 10.1868 159.25 10.3104C159.065 10.434 158.848 10.5 158.625 10.5C158.327 10.5 158.04 10.3815 157.83 10.1705C157.619 9.95952 157.5 9.67337 157.5 9.375Z" fill="#EF5F4C"/>
<path d="M237.531 20.4693L232.837 15.7762C234.197 14.1428 234.875 12.0478 234.731 9.92691C234.586 7.80604 233.629 5.82265 232.059 4.38932C230.489 2.95599 228.427 2.18308 226.302 2.23138C224.177 2.27968 222.152 3.14547 220.649 4.64864C219.145 6.15181 218.28 8.17663 218.231 10.3019C218.183 12.4271 218.956 14.4892 220.389 16.0591C221.823 17.629 223.806 18.5859 225.927 18.7307C228.048 18.8755 230.143 18.1971 231.776 16.8365L236.469 21.5306C236.539 21.6003 236.622 21.6556 236.713 21.6933C236.804 21.731 236.901 21.7504 237 21.7504C237.099 21.7504 237.196 21.731 237.287 21.6933C237.378 21.6556 237.461 21.6003 237.531 21.5306C237.6 21.4609 237.656 21.3782 237.693 21.2871C237.731 21.1961 237.75 21.0985 237.75 21C237.75 20.9014 237.731 20.8038 237.693 20.7128C237.656 20.6218 237.6 20.539 237.531 20.4693ZM219.75 10.5C219.75 9.16495 220.146 7.8599 220.888 6.74987C221.629 5.63984 222.683 4.77467 223.917 4.26378C225.15 3.75289 226.507 3.61922 227.817 3.87967C229.126 4.14012 230.329 4.78299 231.273 5.727C232.217 6.671 232.86 7.87374 233.12 9.18311C233.381 10.4925 233.247 11.8497 232.736 13.0831C232.225 14.3165 231.36 15.3707 230.25 16.1124C229.14 16.8541 227.835 17.25 226.5 17.25C224.71 17.248 222.995 16.5362 221.729 15.2708C220.464 14.0053 219.752 12.2896 219.75 10.5Z" fill="#6C6C6C"/>
</svg>
